<svg xmlns="http://www.w3.org/2000/svg" viewBox="0 0 95.39 35.11"><defs><style>.cls-1{fill:#384647;}.cls-2{fill:#4ecc48;}</style></defs><g id="Layer_1" data-name="Layer 1"><path class="cls-1" d="M23.45,24.48H10.76a4.3,4.3,0,0,0,1.31,2.94,4,4,0,0,0,2.86,1.07,3.58,3.58,0,0,0,3.48-2.1h4.73a7.88,7.88,0,0,1-2.88,4.12A8.43,8.43,0,0,1,15,32.13,9,9,0,0,1,10.52,31a7.83,7.83,0,0,1-3.1-3.15,9.63,9.63,0,0,1-1.11-4.7A9.83,9.83,0,0,1,7.4,18.43a7.76,7.76,0,0,1,3.08-3.14A9.19,9.19,0,0,1,15,14.2a9.16,9.16,0,0,1,4.44,1.06,7.52,7.52,0,0,1,3,3,9.13,9.13,0,0,1,1.08,4.5A9.67,9.67,0,0,1,23.45,24.48ZM19,21.53a3.48,3.48,0,0,0-1.22-2.71,4.32,4.32,0,0,0-2.91-1,4,4,0,0,0-2.75,1,4.36,4.36,0,0,0-1.36,2.74Z" transform="translate(-6.31 -4.94)"/><path class="cls-1" d="M37.06,31.84l-5.9-7.39v7.39H26.78V8.65h4.38v13.2L37,14.48H42.7l-7.65,8.71,7.71,8.65Z" transform="translate(-6.31 -4.94)"/><path class="cls-1" d="M45,18.43a7.71,7.71,0,0,1,2.86-3.14,7.58,7.58,0,0,1,4-1.09,7.15,7.15,0,0,1,3.41.78,6.77,6.77,0,0,1,2.33,2V14.48H62V31.84H57.62V29.31a6.51,6.51,0,0,1-2.33,2,7.22,7.22,0,0,1-3.44.8,7.38,7.38,0,0,1-4-1.13A7.83,7.83,0,0,1,45,27.82a10.22,10.22,0,0,1-1-4.72A10,10,0,0,1,45,18.43Zm12,2a4.48,4.48,0,0,0-1.69-1.76A4.59,4.59,0,0,0,53,18.05a4.41,4.41,0,0,0-2.25.6,4.47,4.47,0,0,0-1.68,1.74,5.41,5.41,0,0,0-.64,2.71,5.6,5.6,0,0,0,.64,2.74,4.53,4.53,0,0,0,1.69,1.8,4.29,4.29,0,0,0,2.24.63,4.49,4.49,0,0,0,2.29-.61A4.41,4.41,0,0,0,57,25.9a5.58,5.58,0,0,0,.63-2.74A5.6,5.6,0,0,0,57,20.42Z" transform="translate(-6.31 -4.94)"/><path class="cls-1" d="M83,14.48,72.2,40.06H67.53l3.76-8.65-7-16.93h4.92l4.48,12.13,4.55-12.13Z" transform="translate(-6.31 -4.94)"/><path class="cls-1" d="M101.69,14.48V31.84H97.27V29.65a5.79,5.79,0,0,1-2.21,1.77,6.78,6.78,0,0,1-3,.64,7.26,7.26,0,0,1-3.6-.86A6,6,0,0,1,86,28.66a8.34,8.34,0,0,1-.9-4V14.48h4.39V24a4.49,4.49,0,0,0,1,3.18,3.67,3.67,0,0,0,2.82,1.11,3.71,3.71,0,0,0,2.85-1.11,4.49,4.49,0,0,0,1-3.18V14.48Z" transform="translate(-6.31 -4.94)"/><path class="cls-2" d="M54.13,11.33S54,4.94,61.19,4.94C61.19,7.91,57.86,11.33,54.13,11.33Z" transform="translate(-6.31 -4.94)"/><path class="cls-2" d="M53.54,11.21S48.78,13,46.81,7.69C49,6.87,52.51,8.41,53.54,11.21Z" transform="translate(-6.31 -4.94)"/></g></svg>