<svg xmlns="http://www.w3.org/2000/svg" xmlns:xlink="http://www.w3.org/1999/xlink" viewBox="0 0 95.39 34.93"><defs><style>.cls-1{fill:#fff;}.cls-2{fill:url(#linear-gradient);}.cls-3{fill:url(#linear-gradient-2);}</style><linearGradient id="linear-gradient" x1="46.94" y1="5.96" x2="52.1" y2="1.11" gradientUnits="userSpaceOnUse"><stop offset="0" stop-color="#4e8448"/><stop offset="0.42" stop-color="#4ea948"/><stop offset="0.78" stop-color="#4ec348"/><stop offset="1" stop-color="#4ecc48"/></linearGradient><linearGradient id="linear-gradient-2" x1="41.54" y1="2.37" x2="46.03" y2="6.01" gradientUnits="userSpaceOnUse"><stop offset="0" stop-color="#4ecc48"/><stop offset="1" stop-color="#4e8448"/></linearGradient></defs><g id="Layer_2" data-name="Layer 2"><g id="Layer_1-2" data-name="Layer 1"><path class="cls-1" d="M17.15,19.36H4.45A4.31,4.31,0,0,0,5.77,22.3a4.05,4.05,0,0,0,2.85,1.07,3.58,3.58,0,0,0,3.48-2.1h4.73A7.92,7.92,0,0,1,14,25.39,8.4,8.4,0,0,1,8.71,27a9,9,0,0,1-4.49-1.11,7.8,7.8,0,0,1-3.11-3.15A9.66,9.66,0,0,1,0,18a9.81,9.81,0,0,1,1.1-4.73,7.62,7.62,0,0,1,3.07-3.14,9.22,9.22,0,0,1,4.54-1.1,9.17,9.17,0,0,1,4.44,1.07,7.49,7.49,0,0,1,3,3,9.19,9.19,0,0,1,1.08,4.5A11,11,0,0,1,17.15,19.36Zm-4.42-2.95A3.46,3.46,0,0,0,11.5,13.7a4.31,4.31,0,0,0-2.91-1,4,4,0,0,0-2.74,1,4.29,4.29,0,0,0-1.37,2.74Z"/><path class="cls-1" d="M30.75,26.72l-5.89-7.4v7.4H20.47V3.53h4.39V16.72l5.83-7.36h5.7l-7.65,8.71,7.72,8.65Z"/><path class="cls-1" d="M38.7,13.31a7.7,7.7,0,0,1,2.85-3.14,7.6,7.6,0,0,1,4-1.1,7.11,7.11,0,0,1,3.4.79,6.86,6.86,0,0,1,2.33,2V9.36h4.42V26.72H51.31V24.18a6.42,6.42,0,0,1-2.33,2,7.09,7.09,0,0,1-3.43.8,7.38,7.38,0,0,1-4-1.12,8,8,0,0,1-2.85-3.19A10.18,10.18,0,0,1,37.65,18,10,10,0,0,1,38.7,13.31Zm12,2a4.5,4.5,0,0,0-7.92,0A5.47,5.47,0,0,0,42.13,18a5.6,5.6,0,0,0,.64,2.74,4.67,4.67,0,0,0,1.69,1.8,4.3,4.3,0,0,0,2.25.63A4.58,4.58,0,0,0,49,22.54a4.44,4.44,0,0,0,1.7-1.76A5.72,5.72,0,0,0,51.31,18,5.69,5.69,0,0,0,50.69,15.3Z"/><path class="cls-1" d="M76.64,9.36,65.89,34.93H61.22L65,26.28,58,9.36h4.92l4.49,12.13L72,9.36Z"/><path class="cls-1" d="M95.39,9.36V26.72H91V24.53a5.87,5.87,0,0,1-2.21,1.77,6.86,6.86,0,0,1-3,.64,7.29,7.29,0,0,1-3.6-.86,6.09,6.09,0,0,1-2.46-2.54,8.35,8.35,0,0,1-.89-4V9.36h4.38v9.56a4.49,4.49,0,0,0,1,3.18,3.67,3.67,0,0,0,2.82,1.11,3.71,3.71,0,0,0,2.85-1.11,4.49,4.49,0,0,0,1-3.18V9.36Z"/><path class="cls-2" d="M46.62,6.39S46.53,0,53.68,0C53.68,3,50.35,6.39,46.62,6.39Z"/><path class="cls-3" d="M46.53,6.36s-5.05.71-5.77-4.95C43.11,1.11,46.15,3.4,46.53,6.36Z"/><rect class="cls-1" x="43.4" y="6.39" width="6.26" height="1.48" rx="0.36"/></g></g></svg>