<svg xmlns="http://www.w3.org/2000/svg" viewBox="0 0 95.39 31.41"><defs><style>.cls-1{fill:#f2f2f2;}</style></defs><g id="Layer_2" data-name="Layer 2"><g id="Layer_1-2" data-name="Layer 1"><path class="cls-1" d="M17.15,15.83H4.45a4.33,4.33,0,0,0,1.32,3,4,4,0,0,0,2.85,1.06,3.58,3.58,0,0,0,3.48-2.1h4.73A7.88,7.88,0,0,1,14,21.86a8.41,8.41,0,0,1-5.24,1.62,9,9,0,0,1-4.49-1.11,7.88,7.88,0,0,1-3.11-3.16A9.63,9.63,0,0,1,0,14.51,9.86,9.86,0,0,1,1.1,9.78,7.59,7.59,0,0,1,4.17,6.65a9.11,9.11,0,0,1,4.54-1.1,9.16,9.16,0,0,1,4.44,1.06,7.46,7.46,0,0,1,3,3,9.16,9.16,0,0,1,1.08,4.5A10.83,10.83,0,0,1,17.15,15.83Zm-4.42-2.95a3.46,3.46,0,0,0-1.23-2.71,4.31,4.31,0,0,0-2.91-1,4,4,0,0,0-2.74,1,4.32,4.32,0,0,0-1.37,2.74Z"/><path class="cls-1" d="M30.75,23.2l-5.89-7.4v7.4H20.47V0h4.39V13.2l5.83-7.37h5.7l-7.65,8.71,7.72,8.66Z"/><path class="cls-1" d="M38.7,9.78a7.67,7.67,0,0,1,2.85-3.13,7.51,7.51,0,0,1,4-1.1,7.11,7.11,0,0,1,3.4.78,6.77,6.77,0,0,1,2.33,2V5.83h4.42V23.2H51.31V20.66a6.51,6.51,0,0,1-2.33,2,7.21,7.21,0,0,1-3.43.8,7.39,7.39,0,0,1-4-1.13,7.88,7.88,0,0,1-2.85-3.18,10.22,10.22,0,0,1-1.05-4.72A10.07,10.07,0,0,1,38.7,9.78Zm12,2A4.41,4.41,0,0,0,49,10a4.49,4.49,0,0,0-2.28-.62,4.42,4.42,0,0,0-2.26.6,4.54,4.54,0,0,0-1.68,1.74,5.43,5.43,0,0,0-.64,2.71,5.58,5.58,0,0,0,.64,2.74A4.63,4.63,0,0,0,44.46,19a4.38,4.38,0,0,0,2.25.62,4.51,4.51,0,0,0,4-2.36,5.76,5.76,0,0,0,.62-2.75A5.72,5.72,0,0,0,50.69,11.77Z"/><path class="cls-1" d="M76.64,5.83,65.89,31.41H61.22L65,22.76,58,5.83h4.92L67.43,18,72,5.83Z"/><path class="cls-1" d="M95.39,5.83V23.2H91V21a5.87,5.87,0,0,1-2.21,1.77,6.87,6.87,0,0,1-3,.65,7.29,7.29,0,0,1-3.6-.87A6,6,0,0,1,79.73,20a8.31,8.31,0,0,1-.89-4V5.83h4.38v9.56a4.49,4.49,0,0,0,1,3.18,3.67,3.67,0,0,0,2.82,1.12,3.71,3.71,0,0,0,2.85-1.12,4.49,4.49,0,0,0,1-3.18V5.83Z"/><rect class="cls-1" x="39.1" width="16.63" height="2.83" rx="0.35"/></g></g></svg>