<?xml version="1.0" encoding="utf-8"?>
<!-- Generator: Adobe Illustrator 25.4.1, SVG Export Plug-In . SVG Version: 6.00 Build 0)  -->
<svg version="1.1" id="Layer_1" xmlns="http://www.w3.org/2000/svg" xmlns:xlink="http://www.w3.org/1999/xlink" x="0px" y="0px"
	 viewBox="0 0 95 35" style="enable-background:new 0 0 95 35;" xml:space="preserve">
<style type="text/css">
	.st0{fill:#121212;}
</style>
<g>
	<path class="st0" d="M10.2,14.8c0.5,0.3,0.9,0.7,1.2,1.3c0.3,0.6,0.4,1.3,0.4,2.1v5.2H9.6v-4.9c0-0.7-0.2-1.2-0.5-1.6
		c-0.4-0.4-0.8-0.6-1.4-0.6c-0.6,0-1.1,0.2-1.5,0.6c-0.4,0.4-0.5,0.9-0.5,1.6v4.9H3.4V11.5h2.2v4.1c0.3-0.4,0.7-0.7,1.2-0.9
		c0.5-0.2,1-0.3,1.6-0.3C9.1,14.4,9.7,14.5,10.2,14.8z"/>
	<path class="st0" d="M14,16.5c0.4-0.7,0.8-1.2,1.5-1.6c0.6-0.4,1.3-0.6,2.1-0.6c0.7,0,1.2,0.1,1.7,0.4s0.9,0.6,1.2,1v-1.3h2.3v8.9
		h-2.3v-1.3c-0.3,0.4-0.7,0.8-1.2,1c-0.5,0.3-1.1,0.4-1.8,0.4c-0.7,0-1.4-0.2-2-0.6S14.3,22,14,21.3s-0.5-1.5-0.5-2.4
		C13.4,18,13.6,17.2,14,16.5z M20.1,17.5c-0.2-0.4-0.5-0.7-0.9-0.9c-0.4-0.2-0.8-0.3-1.2-0.3s-0.8,0.1-1.2,0.3
		c-0.4,0.2-0.6,0.5-0.9,0.9c-0.2,0.4-0.3,0.9-0.3,1.4s0.1,1,0.3,1.4s0.5,0.7,0.9,0.9s0.7,0.3,1.1,0.3c0.4,0,0.8-0.1,1.2-0.3
		c0.4-0.2,0.7-0.5,0.9-0.9c0.2-0.4,0.3-0.9,0.3-1.4S20.3,17.9,20.1,17.5z"/>
	<path class="st0" d="M27.1,11.5v11.8h-2.2V11.5H27.1z"/>
	<path class="st0" d="M30.9,22.9c-0.7-0.4-1.2-0.9-1.6-1.6c-0.4-0.7-0.6-1.5-0.6-2.4c0-0.9,0.2-1.7,0.6-2.4c0.4-0.7,0.9-1.2,1.6-1.6
		c0.7-0.4,1.5-0.6,2.3-0.6s1.6,0.2,2.3,0.6c0.7,0.4,1.2,0.9,1.6,1.6c0.4,0.7,0.6,1.5,0.6,2.4c0,0.9-0.2,1.7-0.6,2.4
		c-0.4,0.7-1,1.2-1.7,1.6c-0.7,0.4-1.5,0.6-2.3,0.6C32.4,23.5,31.6,23.3,30.9,22.9z M34.4,21.2c0.4-0.2,0.6-0.5,0.9-0.9
		c0.2-0.4,0.3-0.9,0.3-1.4c0-0.8-0.2-1.5-0.7-1.9c-0.4-0.5-1-0.7-1.6-0.7c-0.6,0-1.2,0.2-1.6,0.7c-0.4,0.5-0.6,1.1-0.6,1.9
		c0,0.8,0.2,1.5,0.6,1.9c0.4,0.5,1,0.7,1.6,0.7C33.6,21.5,34,21.4,34.4,21.2z"/>
	<path class="st0" d="M51.8,14.5l-2.6,8.9h-2.4l-1.6-6.2l-1.6,6.2h-2.4l-2.6-8.9h2.3l1.6,6.8l1.7-6.8h2.4l1.7,6.7l1.6-6.7H51.8z"/>
	<path class="st0" d="M61.2,19.6h-6.5c0.1,0.6,0.3,1.1,0.7,1.5s0.9,0.5,1.5,0.5c0.8,0,1.4-0.4,1.8-1.1H61c-0.3,0.9-0.7,1.6-1.5,2.1
		c-0.7,0.5-1.6,0.8-2.7,0.8c-0.9,0-1.6-0.2-2.3-0.6c-0.7-0.4-1.2-0.9-1.6-1.6c-0.4-0.7-0.6-1.5-0.6-2.4c0-0.9,0.2-1.7,0.6-2.4
		c0.4-0.7,0.9-1.2,1.6-1.6c0.7-0.4,1.4-0.6,2.3-0.6c0.8,0,1.6,0.2,2.3,0.5c0.7,0.4,1.2,0.9,1.6,1.5s0.6,1.4,0.6,2.3
		C61.3,19,61.2,19.3,61.2,19.6z M58.9,18.1c0-0.6-0.2-1-0.6-1.4c-0.4-0.3-0.9-0.5-1.5-0.5c-0.6,0-1,0.2-1.4,0.5s-0.6,0.8-0.7,1.4
		H58.9z"/>
	<path class="st0" d="M62.9,16.5c0.4-0.7,0.8-1.2,1.5-1.6c0.6-0.4,1.3-0.6,2.1-0.6c0.7,0,1.2,0.1,1.7,0.4c0.5,0.3,0.9,0.6,1.2,1
		v-1.3h2.3v8.9h-2.3v-1.3c-0.3,0.4-0.7,0.8-1.2,1c-0.5,0.3-1.1,0.4-1.8,0.4c-0.7,0-1.4-0.2-2-0.6s-1.1-0.9-1.5-1.6
		c-0.4-0.7-0.5-1.5-0.5-2.4C62.3,18,62.5,17.2,62.9,16.5z M69,17.5c-0.2-0.4-0.5-0.7-0.9-0.9c-0.4-0.2-0.8-0.3-1.2-0.3
		s-0.8,0.1-1.2,0.3s-0.6,0.5-0.9,0.9c-0.2,0.4-0.3,0.9-0.3,1.4s0.1,1,0.3,1.4s0.5,0.7,0.9,0.9s0.7,0.3,1.1,0.3
		c0.4,0,0.8-0.1,1.2-0.3c0.4-0.2,0.7-0.5,0.9-0.9c0.2-0.4,0.3-0.9,0.3-1.4S69.2,17.9,69,17.5z"/>
	<path class="st0" d="M77.4,21.3l2.2-6.8h2.4l-3.3,8.9h-2.7l-3.3-8.9h2.4L77.4,21.3z"/>
	<path class="st0" d="M91.5,19.6H85c0.1,0.6,0.3,1.1,0.7,1.5s0.9,0.5,1.5,0.5c0.8,0,1.4-0.4,1.8-1.1h2.4c-0.3,0.9-0.7,1.6-1.5,2.1
		c-0.7,0.5-1.6,0.8-2.7,0.8c-0.9,0-1.6-0.2-2.3-0.6c-0.7-0.4-1.2-0.9-1.6-1.6c-0.4-0.7-0.6-1.5-0.6-2.4c0-0.9,0.2-1.7,0.6-2.4
		c0.4-0.7,0.9-1.2,1.6-1.6c0.7-0.4,1.4-0.6,2.3-0.6c0.8,0,1.6,0.2,2.3,0.5c0.7,0.4,1.2,0.9,1.6,1.5s0.6,1.4,0.6,2.3
		C91.6,19,91.5,19.3,91.5,19.6z M89.2,18.1c0-0.6-0.2-1-0.6-1.4c-0.4-0.3-0.9-0.5-1.5-0.5c-0.6,0-1,0.2-1.4,0.5s-0.6,0.8-0.7,1.4
		H89.2z"/>
</g>
</svg>
