<svg xmlns="http://www.w3.org/2000/svg" viewBox="0 0 40.31 40.3"><defs><style>.cls-1{opacity:0.5;}.cls-2{fill:#f9f9f9;}</style></defs><g id="Layer_2" data-name="Layer 2"><g id="shape"><g class="cls-1"><path class="cls-2" d="M28,40.3H11.59L0,28.72V12.33L11.59.74H28L39.57,12.33V28.72ZM12.19,38.86H27.38L38.12,28.12V12.92L27.38,2.18H12.19L1.44,12.92v15.2Z"/><path class="cls-2" d="M19.78,36.34A15.82,15.82,0,1,1,35.6,20.52,15.84,15.84,0,0,1,19.78,36.34ZM19.78,6A14.53,14.53,0,1,0,34.31,20.52,14.55,14.55,0,0,0,19.78,6Z"/><path class="cls-2" d="M19.78,36.59A16.07,16.07,0,1,1,35.85,20.52,16.09,16.09,0,0,1,19.78,36.59ZM19.78,5A15.57,15.57,0,1,0,35.36,20.52,15.59,15.59,0,0,0,19.78,5Zm0,30.35A14.78,14.78,0,1,1,34.56,20.52,14.79,14.79,0,0,1,19.78,35.3Zm0-29.06A14.28,14.28,0,1,0,34.06,20.52,14.3,14.3,0,0,0,19.78,6.24Z"/><path class="cls-2" d="M37.31,6a3,3,0,1,1,3-3A3,3,0,0,1,37.31,6Zm0-4.49A1.5,1.5,0,1,0,38.81,3,1.5,1.5,0,0,0,37.31,1.5Z"/></g></g></g></svg>